# xmcd
#
# Track frame offsets: 
#        150
#        20911
#        30679
#        41875
#        55994
#        68701
#        81292
#        95588
#        105094
#        121001
#        132328
#        144306
#        157709
#        174364
#        186377
#        199755
#        215162
#        225818
#        243675
#        256584
#        267198
#        278533
#        293739
#        311827
#        327266
#        340325
#
# Disc length: 4749 seconds
#
# Revision: 3
# Processed by: cddbd v1.5.2PL0 Copyright (c) Steve Scherf et al.
# Submitted via: ExactAudioCopyFreeDBPlugin 1.0
#
DISCID=72128b1a
DTITLE=Doris Duke - I'm a Loser
DYEAR=2005
DGENRE=Soul
TTITLE0=He's Gone
TTITLE1=I Can't Do Without You
TTITLE2=Feet Start Walking
TTITLE3=Ghost of Myself
TTITLE4=Your Best Friend
TTITLE5=The Feeling is Right
TTITLE6=I Don't Care Anymore
TTITLE7=Congratulations Baby
TTITLE8=We're More Than Strangers
TTITLE9=Divorce Decree
TTITLE10=How Was I to Know You Cared
TTITLE11=To the Other Woman (I'm the Other Woman)
TTITLE12=I Wish I Could Sleep
TTITLE13=It Sure Was Fun
TTITLE14=I Don't Know How (To Fall Out of Love with You)
TTITLE15=He's Everything I Need
TTITLE16=I'd Do it All Over You
TTITLE17=If She's Your Wife (Who Am I)
TTITLE18=Since I Fell for You
TTITLE19=Don't Let the Green Grass Fool You
TTITLE20=Let Love Touch Us Now
TTITLE21=Bad Water
TTITLE22=By the Time I Get to Phoenix
TTITLE23=Too Much to Bear (as "Doris Willingham" in 1967)
TTITLE24=You Can't Do That (as "Doris Willingham" in 1967)
TTITLE25=Lost Again (as "Doris Willingham" in 1967)
EXTD=
EXTT0=
EXTT1=
EXTT2=
EXTT3=
EXTT4=
EXTT5=
EXTT6=
EXTT7=
EXTT8=
EXTT9=
EXTT10=
EXTT11=
EXTT12=
EXTT13=
EXTT14=
EXTT15=
EXTT16=
EXTT17=
EXTT18=
EXTT19=
EXTT20=
EXTT21=
EXTT22=
EXTT23=
EXTT24=
EXTT25=
PLAYORDER=
